<mxfile host="app.diagrams.net" agent="Mozilla/5.0 (X11; Linux x86_64; rv:136.0) Gecko/20100101 Firefox/136.0" version="28.0.7">
  <diagram id="PPgBNjxDMw98MHgS0Eg6" name="Page-1">
    <mxGraphModel dx="1858" dy="1291" grid="0" gridSize="10" guides="1" tooltips="1" connect="1" arrows="1" fold="1" page="0" pageScale="1" pageWidth="827" pageHeight="1169" math="0" shadow="0">
      <root>
        <mxCell id="0" />
        <mxCell id="1" parent="0" />
        <mxCell id="ucCqyxC-0t8KOgPkOFW8-1" value="&lt;font style=&quot;font-size: 18px;&quot;&gt;&lt;b&gt;SOCme&lt;/b&gt;&lt;/font&gt;" style="whiteSpace=wrap;html=1;fillColor=#f8cecc;fontSize=14;strokeColor=none;verticalAlign=top;" vertex="1" parent="1">
          <mxGeometry x="1350" y="400" width="520" height="430" as="geometry" />
        </mxCell>
        <mxCell id="ucCqyxC-0t8KOgPkOFW8-2" value="&lt;b&gt;&lt;font style=&quot;font-size: 18px;&quot;&gt;Collectivité locale #2&lt;/font&gt;&lt;/b&gt;" style="whiteSpace=wrap;html=1;fillColor=#dae8fc;fontSize=14;strokeColor=none;verticalAlign=top;" vertex="1" parent="1">
          <mxGeometry x="177" y="850" width="533" height="331" as="geometry" />
        </mxCell>
        <mxCell id="ucCqyxC-0t8KOgPkOFW8-3" value="&lt;b&gt;&lt;font style=&quot;font-size: 18px;&quot;&gt;Collectivité locale #1&lt;/font&gt;&lt;/b&gt;" style="whiteSpace=wrap;html=1;fillColor=#FFD470;gradientColor=none;fontSize=14;strokeColor=none;verticalAlign=top;" vertex="1" parent="1">
          <mxGeometry x="179" y="110" width="541" height="668" as="geometry" />
        </mxCell>
        <mxCell id="ucCqyxC-0t8KOgPkOFW8-4" value="Poste collectivité" style="verticalLabelPosition=bottom;aspect=fixed;html=1;verticalAlign=top;strokeColor=none;shape=mxgraph.citrix.laptop_2;fillColor=#66B2FF;gradientColor=#0066CC;fontSize=14;" vertex="1" parent="1">
          <mxGeometry x="236.4999999999999" y="910" width="116" height="86.5" as="geometry" />
        </mxCell>
        <mxCell id="ucCqyxC-0t8KOgPkOFW8-5" value="Poste collectivité" style="verticalLabelPosition=bottom;aspect=fixed;html=1;verticalAlign=top;strokeColor=none;shape=mxgraph.citrix.laptop_2;fillColor=#66B2FF;gradientColor=#0066CC;fontSize=14;" vertex="1" parent="1">
          <mxGeometry x="236.4999999999999" y="661.5" width="116" height="86.5" as="geometry" />
        </mxCell>
        <mxCell id="ucCqyxC-0t8KOgPkOFW8-6" value="Poste collectivité" style="verticalLabelPosition=bottom;aspect=fixed;html=1;verticalAlign=top;strokeColor=none;shape=mxgraph.citrix.desktop;fillColor=#66B2FF;gradientColor=#0066CC;fontSize=14;" vertex="1" parent="1">
          <mxGeometry x="249.99999999999994" y="487.99999999999994" width="89" height="98" as="geometry" />
        </mxCell>
        <mxCell id="ucCqyxC-0t8KOgPkOFW8-7" value="Node" style="verticalLabelPosition=bottom;aspect=fixed;html=1;verticalAlign=top;strokeColor=none;shape=image;fillColor=#66B2FF;gradientColor=#0066CC;fontSize=14;labelBackgroundColor=none;points=[];shadow=0;dashed=0;image=img/lib/allied_telesis/computer_and_terminals/Server_Desktop.svg;" vertex="1" parent="1">
          <mxGeometry x="249.99999999999994" y="328.00000000000006" width="89" height="98" as="geometry" />
        </mxCell>
        <mxCell id="ucCqyxC-0t8KOgPkOFW8-8" value="Poste collectivité" style="verticalLabelPosition=bottom;aspect=fixed;html=1;verticalAlign=top;strokeColor=none;shape=mxgraph.citrix.desktop;fillColor=#66B2FF;gradientColor=#0066CC;fontSize=14;" vertex="1" parent="1">
          <mxGeometry x="250.00000000000006" y="156.00000000000006" width="89" height="98" as="geometry" />
        </mxCell>
        <mxCell id="ucCqyxC-0t8KOgPkOFW8-9" style="edgeStyle=none;rounded=0;html=1;startSize=10;endSize=10;jettySize=auto;orthogonalLoop=1;fontSize=14;endArrow=none;endFill=0;strokeWidth=2;" edge="1" parent="1" target="ucCqyxC-0t8KOgPkOFW8-14">
          <mxGeometry relative="1" as="geometry">
            <mxPoint x="1482" y="719.9695945945946" as="sourcePoint" />
          </mxGeometry>
        </mxCell>
        <mxCell id="ucCqyxC-0t8KOgPkOFW8-10" value="" style="verticalLabelPosition=bottom;aspect=fixed;html=1;verticalAlign=top;strokeColor=none;shape=mxgraph.citrix.router;fillColor=#66B2FF;gradientColor=#0066CC;fontSize=14;" vertex="1" parent="1">
          <mxGeometry x="1192" y="709.5" width="55" height="36.5" as="geometry" />
        </mxCell>
        <mxCell id="ucCqyxC-0t8KOgPkOFW8-11" style="edgeStyle=none;rounded=0;html=1;startSize=10;endSize=10;jettySize=auto;orthogonalLoop=1;fontSize=14;endArrow=none;endFill=0;strokeWidth=2;" edge="1" parent="1" source="ucCqyxC-0t8KOgPkOFW8-14" target="ucCqyxC-0t8KOgPkOFW8-17">
          <mxGeometry relative="1" as="geometry" />
        </mxCell>
        <mxCell id="ucCqyxC-0t8KOgPkOFW8-12" style="edgeStyle=none;rounded=0;html=1;startSize=10;endSize=10;jettySize=auto;orthogonalLoop=1;fontSize=14;endArrow=none;endFill=0;strokeWidth=2;" edge="1" parent="1">
          <mxGeometry relative="1" as="geometry">
            <mxPoint x="360" y="240" as="sourcePoint" />
            <mxPoint x="530" y="410" as="targetPoint" />
          </mxGeometry>
        </mxCell>
        <mxCell id="ucCqyxC-0t8KOgPkOFW8-13" style="edgeStyle=none;rounded=0;html=1;startSize=10;endSize=10;jettySize=auto;orthogonalLoop=1;fontSize=14;endArrow=none;endFill=0;strokeWidth=2;" edge="1" parent="1" source="ucCqyxC-0t8KOgPkOFW8-14" target="ucCqyxC-0t8KOgPkOFW8-15">
          <mxGeometry relative="1" as="geometry" />
        </mxCell>
        <mxCell id="ucCqyxC-0t8KOgPkOFW8-14" value="" style="verticalLabelPosition=bottom;aspect=fixed;html=1;verticalAlign=top;strokeColor=none;shape=mxgraph.citrix.switch;fillColor=#66B2FF;gradientColor=#0066CC;fontSize=14;" vertex="1" parent="1">
          <mxGeometry x="1519.5" y="646.75" width="92" height="41.5" as="geometry" />
        </mxCell>
        <mxCell id="ucCqyxC-0t8KOgPkOFW8-15" value="Poste" style="verticalLabelPosition=top;aspect=fixed;html=1;verticalAlign=bottom;strokeColor=none;shape=mxgraph.citrix.thin_client;fillColor=#66B2FF;gradientColor=#0066CC;fontSize=14;labelPosition=center;align=center;" vertex="1" parent="1">
          <mxGeometry x="1764" y="632" width="71" height="71" as="geometry" />
        </mxCell>
        <mxCell id="ucCqyxC-0t8KOgPkOFW8-16" value="Core" style="verticalLabelPosition=top;aspect=fixed;html=1;verticalAlign=bottom;strokeColor=none;shape=image;fillColor=#66B2FF;gradientColor=#0066CC;fontSize=14;labelPosition=center;align=center;labelBackgroundColor=none;points=[];shadow=0;dashed=0;image=img/lib/allied_telesis/computer_and_terminals/Server_Desktop.svg;" vertex="1" parent="1">
          <mxGeometry x="1686" y="508" width="71" height="71" as="geometry" />
        </mxCell>
        <mxCell id="ucCqyxC-0t8KOgPkOFW8-17" value="Poste" style="verticalLabelPosition=top;aspect=fixed;html=1;verticalAlign=bottom;strokeColor=none;shape=mxgraph.citrix.thin_client;fillColor=#66B2FF;gradientColor=#0066CC;fontSize=14;labelPosition=center;align=center;" vertex="1" parent="1">
          <mxGeometry x="1530" y="472" width="71" height="71" as="geometry" />
        </mxCell>
        <mxCell id="ucCqyxC-0t8KOgPkOFW8-18" value="&lt;font&gt;Exemple d&#39;Architecture réseau SOCme&lt;/font&gt;" style="text;strokeColor=none;fillColor=none;html=1;fontSize=40;fontStyle=1;verticalAlign=middle;align=center;" vertex="1" parent="1">
          <mxGeometry x="930" y="185" width="861" height="40" as="geometry" />
        </mxCell>
        <mxCell id="ucCqyxC-0t8KOgPkOFW8-19" value="" style="verticalLabelPosition=bottom;aspect=fixed;html=1;verticalAlign=top;strokeColor=none;shape=mxgraph.citrix.switch;fillColor=#66B2FF;gradientColor=#0066CC;fontSize=14;" vertex="1" parent="1">
          <mxGeometry x="510" y="426" width="92" height="41.5" as="geometry" />
        </mxCell>
        <mxCell id="ucCqyxC-0t8KOgPkOFW8-20" value="" style="verticalLabelPosition=bottom;aspect=fixed;html=1;verticalAlign=top;strokeColor=none;shape=mxgraph.citrix.router;fillColor=#66B2FF;gradientColor=#0066CC;fontSize=14;" vertex="1" parent="1">
          <mxGeometry x="740" y="990" width="55" height="36.5" as="geometry" />
        </mxCell>
        <mxCell id="ucCqyxC-0t8KOgPkOFW8-21" value="" style="verticalLabelPosition=bottom;aspect=fixed;html=1;verticalAlign=top;strokeColor=none;shape=mxgraph.citrix.router;fillColor=#66B2FF;gradientColor=#0066CC;fontSize=14;" vertex="1" parent="1">
          <mxGeometry x="740" y="656.5" width="55" height="36.5" as="geometry" />
        </mxCell>
        <mxCell id="ucCqyxC-0t8KOgPkOFW8-22" style="edgeStyle=none;rounded=0;html=1;startSize=10;endSize=10;jettySize=auto;orthogonalLoop=1;fontSize=14;endArrow=none;endFill=0;strokeWidth=2;exitX=0.056;exitY=0.966;exitDx=0;exitDy=0;exitPerimeter=0;" edge="1" parent="1">
          <mxGeometry relative="1" as="geometry">
            <mxPoint x="1687.976" y="580.5859999999998" as="sourcePoint" />
            <mxPoint x="1608" y="644" as="targetPoint" />
            <Array as="points" />
          </mxGeometry>
        </mxCell>
        <mxCell id="ucCqyxC-0t8KOgPkOFW8-23" value="Node" style="verticalLabelPosition=bottom;aspect=fixed;html=1;verticalAlign=top;strokeColor=none;shape=image;fillColor=#66B2FF;gradientColor=#0066CC;fontSize=14;labelBackgroundColor=none;points=[];shadow=0;dashed=0;image=img/lib/allied_telesis/computer_and_terminals/Server_Desktop.svg;" vertex="1" parent="1">
          <mxGeometry x="260" y="1044.25" width="89" height="98" as="geometry" />
        </mxCell>
        <mxCell id="ucCqyxC-0t8KOgPkOFW8-24" style="edgeStyle=none;rounded=0;html=1;jettySize=auto;orthogonalLoop=1;fontSize=14;endArrow=none;endFill=0;strokeWidth=2;startArrow=classic;startFill=0;exitX=1;exitY=0.5;exitDx=0;exitDy=0;" edge="1" parent="1" source="ucCqyxC-0t8KOgPkOFW8-25">
          <mxGeometry relative="1" as="geometry">
            <mxPoint x="1100" y="726" as="sourcePoint" />
            <mxPoint x="1179.35" y="726.25" as="targetPoint" />
          </mxGeometry>
        </mxCell>
        <mxCell id="ucCqyxC-0t8KOgPkOFW8-25" value="&lt;font style=&quot;font-size: 18px;&quot;&gt;&lt;b&gt;Internet&lt;/b&gt;&lt;/font&gt;" style="image;aspect=fixed;perimeter=ellipsePerimeter;html=1;align=center;shadow=0;dashed=0;spacingTop=3;image=img/lib/active_directory/internet_cloud.svg;" vertex="1" parent="1">
          <mxGeometry x="877" y="662.25" width="206.35" height="130" as="geometry" />
        </mxCell>
        <mxCell id="ucCqyxC-0t8KOgPkOFW8-26" style="edgeStyle=none;rounded=0;html=1;startSize=10;endSize=10;jettySize=auto;orthogonalLoop=1;fontSize=14;endArrow=none;endFill=0;strokeWidth=2;" edge="1" parent="1">
          <mxGeometry relative="1" as="geometry">
            <mxPoint x="352.5" y="410" as="sourcePoint" />
            <mxPoint x="490" y="440" as="targetPoint" />
          </mxGeometry>
        </mxCell>
        <mxCell id="ucCqyxC-0t8KOgPkOFW8-27" style="edgeStyle=none;rounded=0;html=1;startSize=10;endSize=10;jettySize=auto;orthogonalLoop=1;fontSize=14;endArrow=none;endFill=0;strokeWidth=2;" edge="1" parent="1">
          <mxGeometry relative="1" as="geometry">
            <mxPoint x="352.5" y="559" as="sourcePoint" />
            <mxPoint x="510" y="470" as="targetPoint" />
          </mxGeometry>
        </mxCell>
        <mxCell id="ucCqyxC-0t8KOgPkOFW8-28" style="edgeStyle=none;rounded=0;html=1;startSize=10;endSize=10;jettySize=auto;orthogonalLoop=1;fontSize=14;endArrow=none;endFill=0;strokeWidth=2;" edge="1" parent="1">
          <mxGeometry relative="1" as="geometry">
            <mxPoint x="370" y="699" as="sourcePoint" />
            <mxPoint x="530" y="490" as="targetPoint" />
          </mxGeometry>
        </mxCell>
        <mxCell id="ucCqyxC-0t8KOgPkOFW8-29" style="edgeStyle=none;rounded=0;html=1;startSize=10;endSize=10;jettySize=auto;orthogonalLoop=1;fontSize=14;endArrow=none;endFill=0;strokeWidth=2;" edge="1" parent="1">
          <mxGeometry relative="1" as="geometry">
            <mxPoint x="653" y="613" as="sourcePoint" />
            <mxPoint x="733" y="653" as="targetPoint" />
            <Array as="points" />
          </mxGeometry>
        </mxCell>
        <mxCell id="ucCqyxC-0t8KOgPkOFW8-30" style="edgeStyle=none;rounded=0;html=1;startSize=10;endSize=10;jettySize=auto;orthogonalLoop=1;fontSize=14;endArrow=none;endFill=0;strokeWidth=2;" edge="1" parent="1">
          <mxGeometry relative="1" as="geometry">
            <mxPoint x="370" y="970" as="sourcePoint" />
            <mxPoint x="720" y="1000" as="targetPoint" />
          </mxGeometry>
        </mxCell>
        <mxCell id="ucCqyxC-0t8KOgPkOFW8-31" style="edgeStyle=none;rounded=0;html=1;startSize=10;endSize=10;jettySize=auto;orthogonalLoop=1;fontSize=14;endArrow=none;endFill=0;strokeWidth=2;" edge="1" parent="1">
          <mxGeometry relative="1" as="geometry">
            <mxPoint x="370" y="1100" as="sourcePoint" />
            <mxPoint x="720" y="1020" as="targetPoint" />
          </mxGeometry>
        </mxCell>
        <mxCell id="ucCqyxC-0t8KOgPkOFW8-32" value="" style="edgeStyle=none;rounded=0;html=1;startSize=10;endSize=10;jettySize=auto;orthogonalLoop=1;fontSize=14;endArrow=none;endFill=0;strokeWidth=2;" edge="1" parent="1">
          <mxGeometry relative="1" as="geometry">
            <mxPoint x="588" y="473" as="sourcePoint" />
            <mxPoint x="598" y="543" as="targetPoint" />
            <Array as="points" />
          </mxGeometry>
        </mxCell>
        <mxCell id="ucCqyxC-0t8KOgPkOFW8-33" value="Parefeu réseau" style="verticalLabelPosition=bottom;sketch=0;aspect=fixed;html=1;verticalAlign=top;strokeColor=none;align=center;outlineConnect=0;shape=mxgraph.citrix.firewall;" vertex="1" parent="1">
          <mxGeometry x="590" y="560" width="48.39" height="60" as="geometry" />
        </mxCell>
        <mxCell id="ucCqyxC-0t8KOgPkOFW8-34" style="edgeStyle=none;rounded=0;html=1;startSize=10;endSize=10;jettySize=auto;orthogonalLoop=1;fontSize=14;endArrow=classic;endFill=1;strokeWidth=2;startArrow=none;startFill=0;" edge="1" parent="1">
          <mxGeometry relative="1" as="geometry">
            <mxPoint x="800" y="690" as="sourcePoint" />
            <mxPoint x="870" y="724.75" as="targetPoint" />
            <Array as="points" />
          </mxGeometry>
        </mxCell>
        <mxCell id="ucCqyxC-0t8KOgPkOFW8-35" style="edgeStyle=none;rounded=0;html=1;startSize=10;endSize=10;jettySize=auto;orthogonalLoop=1;fontSize=14;endArrow=classic;endFill=1;strokeWidth=2;" edge="1" parent="1">
          <mxGeometry relative="1" as="geometry">
            <mxPoint x="800" y="990" as="sourcePoint" />
            <mxPoint x="900" y="784.75" as="targetPoint" />
            <Array as="points" />
          </mxGeometry>
        </mxCell>
        <mxCell id="ucCqyxC-0t8KOgPkOFW8-36" value="Parefeu réseau" style="verticalLabelPosition=bottom;sketch=0;aspect=fixed;html=1;verticalAlign=top;strokeColor=none;align=center;outlineConnect=0;shape=mxgraph.citrix.firewall;" vertex="1" parent="1">
          <mxGeometry x="1421" y="697.25" width="48.39" height="60" as="geometry" />
        </mxCell>
        <mxCell id="ucCqyxC-0t8KOgPkOFW8-37" style="edgeStyle=none;rounded=0;html=1;startSize=10;endSize=10;jettySize=auto;orthogonalLoop=1;fontSize=14;endArrow=none;endFill=0;strokeWidth=2;" edge="1" parent="1">
          <mxGeometry relative="1" as="geometry">
            <mxPoint x="1257" y="727.04" as="sourcePoint" />
            <mxPoint x="1407" y="727" as="targetPoint" />
          </mxGeometry>
        </mxCell>
        <mxCell id="ucCqyxC-0t8KOgPkOFW8-38" value="" style="endArrow=none;dashed=1;html=1;dashPattern=1 3;strokeWidth=4;rounded=0;" edge="1" parent="1">
          <mxGeometry width="50" height="50" relative="1" as="geometry">
            <mxPoint x="350" y="403" as="sourcePoint" />
            <mxPoint x="1140" y="1060" as="targetPoint" />
            <Array as="points">
              <mxPoint x="1140" y="403" />
            </Array>
          </mxGeometry>
        </mxCell>
        <mxCell id="ucCqyxC-0t8KOgPkOFW8-39" value="" style="endArrow=none;dashed=1;html=1;dashPattern=1 3;strokeWidth=4;rounded=0;exitX=0.879;exitY=0.769;exitDx=0;exitDy=0;exitPerimeter=0;" edge="1" parent="1">
          <mxGeometry width="50" height="50" relative="1" as="geometry">
            <mxPoint x="360" y="1130" as="sourcePoint" />
            <mxPoint x="1080" y="1130" as="targetPoint" />
            <Array as="points">
              <mxPoint x="822" y="1130" />
            </Array>
          </mxGeometry>
        </mxCell>
        <mxCell id="ucCqyxC-0t8KOgPkOFW8-40" value="" style="sketch=0;pointerEvents=1;shadow=0;dashed=0;html=1;strokeColor=none;fillColor=#505050;labelPosition=center;verticalLabelPosition=bottom;verticalAlign=top;outlineConnect=0;align=center;shape=mxgraph.office.security.lock_protected;" vertex="1" parent="1">
          <mxGeometry x="916" y="1091" width="38" height="52" as="geometry" />
        </mxCell>
        <mxCell id="ucCqyxC-0t8KOgPkOFW8-41" value="" style="sketch=0;pointerEvents=1;shadow=0;dashed=0;html=1;strokeColor=none;fillColor=#505050;labelPosition=center;verticalLabelPosition=bottom;verticalAlign=top;outlineConnect=0;align=center;shape=mxgraph.office.security.lock_protected;" vertex="1" parent="1">
          <mxGeometry x="1120" y="920" width="38" height="52" as="geometry" />
        </mxCell>
        <mxCell id="ucCqyxC-0t8KOgPkOFW8-42" value="" style="sketch=0;pointerEvents=1;shadow=0;dashed=0;html=1;strokeColor=none;fillColor=#505050;labelPosition=center;verticalLabelPosition=bottom;verticalAlign=top;outlineConnect=0;align=center;shape=mxgraph.office.security.lock_protected;" vertex="1" parent="1">
          <mxGeometry x="1320" y="1091.25" width="38" height="52" as="geometry" />
        </mxCell>
        <mxCell id="ucCqyxC-0t8KOgPkOFW8-43" value="" style="endArrow=none;dashed=1;html=1;dashPattern=1 3;strokeWidth=4;rounded=0;exitX=0.879;exitY=0.769;exitDx=0;exitDy=0;exitPerimeter=0;" edge="1" parent="1">
          <mxGeometry width="50" height="50" relative="1" as="geometry">
            <mxPoint x="1200" y="1130" as="sourcePoint" />
            <mxPoint x="1740" y="590" as="targetPoint" />
            <Array as="points">
              <mxPoint x="1740" y="1130" />
            </Array>
          </mxGeometry>
        </mxCell>
        <mxCell id="ucCqyxC-0t8KOgPkOFW8-44" value="Tailscale&#xa;" style="shape=image;verticalLabelPosition=bottom;labelBackgroundColor=default;verticalAlign=top;aspect=fixed;imageAspect=0;editableCssRules=.*;image=data:image/svg+xml,PHN2ZyB2aWV3Qm94PSIwLjE2NTk2OTk2Nzg0MjEwMjA1IC0wLjAwMDU5NTIxMTk4MjcyNzA1MDggNDcuNjY3NjQ0NTAwNzMyNDIgNDguMDAwMjA5ODA4MzQ5NjEiIHhtbG5zPSJodHRwOi8vd3d3LnczLm9yZy8yMDAwL3N2ZyIgd2lkdGg9IjQ3LjY2NzY0NDUwMDczMjQyIiBoZWlnaHQ9IjQ4LjAwMDIwOTgwODM0OTYxIj48ZyB0cmFuc2Zvcm09InRyYW5zbGF0ZSgtMS4zODYgLTEuMjIpIHNjYWxlKDIuMjE3MSkiIGZpbGw9ImN1cnJlbnRDb2xvciI+PGNpcmNsZSBvcGFjaXR5PSIuMiIgY2xhc3M9ImRvdCBkb3QtYTEiIHI9IjIuNyIgY3k9IjMuMjUiIGN4PSIzLjQiLz48Y2lyY2xlIGNsYXNzPSJkb3QgZG90LWEyIiByPSIyLjciIGN5PSIxMS4zIiBjeD0iMy40Ii8+PGNpcmNsZSBvcGFjaXR5PSIuMiIgY2xhc3M9ImRvdCBkb3QtYTMiIHI9IjIuNyIgY3k9IjE5LjUiIGN4PSIzLjQiLz48Y2lyY2xlIGNsYXNzPSJkb3QgZG90LWIxIiByPSIyLjciIGN5PSIxMS4zIiBjeD0iMTEuNSIvPjxjaXJjbGUgY2xhc3M9ImRvdCBkb3QtYjIiIHI9IjIuNyIgY3k9IjE5LjUiIGN4PSIxMS41Ii8+PGNpcmNsZSBvcGFjaXR5PSIuMiIgY2xhc3M9ImRvdCBkb3QtYjMiIHI9IjIuNyIgY3k9IjMuMjUiIGN4PSIxMS41Ii8+PGNpcmNsZSBvcGFjaXR5PSIuMiIgY2xhc3M9ImRvdCBkb3QtYzEiIHI9IjIuNyIgY3k9IjMuMjUiIGN4PSIxOS41Ii8+PGNpcmNsZSBjbGFzcz0iZG90IGRvdC1jMiIgcj0iMi43IiBjeT0iMTEuMyIgY3g9IjE5LjUiLz48Y2lyY2xlIG9wYWNpdHk9Ii4yIiBjbGFzcz0iZG90IGRvdC1jMyIgcj0iMi43IiBjeT0iMTkuNSIgY3g9IjE5LjUiLz48L2c+PC9zdmc+;fontStyle=1;fontSize=18;strokeWidth=2;" vertex="1" parent="1">
          <mxGeometry x="1087.5" y="1074.75" width="103" height="103" as="geometry" />
        </mxCell>
        <mxCell id="ucCqyxC-0t8KOgPkOFW8-45" value="" style="sketch=0;pointerEvents=1;shadow=0;dashed=0;html=1;strokeColor=none;fillColor=#505050;labelPosition=center;verticalLabelPosition=bottom;verticalAlign=top;outlineConnect=0;align=center;shape=mxgraph.office.security.lock_protected;" vertex="1" parent="1">
          <mxGeometry x="1320" y="1091.25" width="38" height="52" as="geometry" />
        </mxCell>
        <mxCell id="ucCqyxC-0t8KOgPkOFW8-46" value="&lt;font style=&quot;font-size: 15px;&quot;&gt;Grants :&lt;br&gt;- Autoriser tout le traffic depuis un&lt;br&gt;&lt;/font&gt;&lt;div&gt;&lt;font style=&quot;font-size: 15px;&quot;&gt;core ou analyste vers une node&lt;/font&gt;&lt;/div&gt;&lt;div&gt;&lt;font style=&quot;font-size: 15px;&quot;&gt;- Autoriser tout le traffic depuis un&lt;br&gt;analyste vers le core&lt;/font&gt;&lt;/div&gt;&lt;div&gt;&lt;br&gt;&lt;/div&gt;" style="text;html=1;align=center;verticalAlign=middle;resizable=0;points=[];autosize=1;strokeColor=none;fillColor=none;" vertex="1" parent="1">
          <mxGeometry x="1025" y="1204" width="230" height="120" as="geometry" />
        </mxCell>
        <mxCell id="ucCqyxC-0t8KOgPkOFW8-47" value="" style="shape=table;startSize=0;container=1;collapsible=0;childLayout=tableLayout;fillColor=#FFD470;strokeColor=#b46504;shadow=0;rounded=0;" vertex="1" parent="1">
          <mxGeometry x="178" y="1417" width="525" height="260" as="geometry" />
        </mxCell>
        <mxCell id="ucCqyxC-0t8KOgPkOFW8-48" value="" style="shape=tableRow;horizontal=0;startSize=0;swimlaneHead=0;swimlaneBody=0;strokeColor=#b46504;top=0;left=0;bottom=0;right=0;collapsible=0;dropTarget=0;fillColor=#FFD470;points=[[0,0.5],[1,0.5]];portConstraint=eastwest;" vertex="1" parent="ucCqyxC-0t8KOgPkOFW8-47">
          <mxGeometry width="525" height="52" as="geometry" />
        </mxCell>
        <mxCell id="ucCqyxC-0t8KOgPkOFW8-49" value="Règle" style="shape=partialRectangle;html=1;whiteSpace=wrap;connectable=0;strokeColor=#b46504;overflow=hidden;fillColor=#FFD470;top=0;left=0;bottom=0;right=0;pointerEvents=1;" vertex="1" parent="ucCqyxC-0t8KOgPkOFW8-48">
          <mxGeometry width="68" height="52" as="geometry">
            <mxRectangle width="68" height="52" as="alternateBounds" />
          </mxGeometry>
        </mxCell>
        <mxCell id="ucCqyxC-0t8KOgPkOFW8-50" value="Action" style="shape=partialRectangle;html=1;whiteSpace=wrap;connectable=0;strokeColor=#b46504;overflow=hidden;fillColor=#FFD470;top=0;left=0;bottom=0;right=0;pointerEvents=1;" vertex="1" parent="ucCqyxC-0t8KOgPkOFW8-48">
          <mxGeometry x="68" width="69" height="52" as="geometry">
            <mxRectangle width="69" height="52" as="alternateBounds" />
          </mxGeometry>
        </mxCell>
        <mxCell id="ucCqyxC-0t8KOgPkOFW8-51" value="Direction" style="shape=partialRectangle;html=1;whiteSpace=wrap;connectable=0;strokeColor=#b46504;overflow=hidden;fillColor=#FFD470;top=0;left=0;bottom=0;right=0;pointerEvents=1;" vertex="1" parent="ucCqyxC-0t8KOgPkOFW8-48">
          <mxGeometry x="137" width="68" height="52" as="geometry">
            <mxRectangle width="68" height="52" as="alternateBounds" />
          </mxGeometry>
        </mxCell>
        <mxCell id="ucCqyxC-0t8KOgPkOFW8-52" value="Source" style="shape=partialRectangle;html=1;whiteSpace=wrap;connectable=0;strokeColor=#b46504;overflow=hidden;fillColor=#FFD470;top=0;left=0;bottom=0;right=0;pointerEvents=1;" vertex="1" parent="ucCqyxC-0t8KOgPkOFW8-48">
          <mxGeometry x="205" width="68" height="52" as="geometry">
            <mxRectangle width="68" height="52" as="alternateBounds" />
          </mxGeometry>
        </mxCell>
        <mxCell id="ucCqyxC-0t8KOgPkOFW8-53" value="Port" style="shape=partialRectangle;html=1;whiteSpace=wrap;connectable=0;strokeColor=#b46504;overflow=hidden;fillColor=#FFD470;top=0;left=0;bottom=0;right=0;pointerEvents=1;" vertex="1" parent="ucCqyxC-0t8KOgPkOFW8-48">
          <mxGeometry x="273" width="77" height="52" as="geometry">
            <mxRectangle width="77" height="52" as="alternateBounds" />
          </mxGeometry>
        </mxCell>
        <mxCell id="ucCqyxC-0t8KOgPkOFW8-54" value="Description" style="shape=partialRectangle;html=1;whiteSpace=wrap;connectable=0;strokeColor=#b46504;overflow=hidden;fillColor=#FFD470;top=0;left=0;bottom=0;right=0;pointerEvents=1;" vertex="1" parent="ucCqyxC-0t8KOgPkOFW8-48">
          <mxGeometry x="350" width="175" height="52" as="geometry">
            <mxRectangle width="175" height="52" as="alternateBounds" />
          </mxGeometry>
        </mxCell>
        <mxCell id="ucCqyxC-0t8KOgPkOFW8-55" value="" style="shape=tableRow;horizontal=0;startSize=0;swimlaneHead=0;swimlaneBody=0;strokeColor=#b46504;top=0;left=0;bottom=0;right=0;collapsible=0;dropTarget=0;fillColor=#FFD470;points=[[0,0.5],[1,0.5]];portConstraint=eastwest;" vertex="1" parent="ucCqyxC-0t8KOgPkOFW8-47">
          <mxGeometry y="52" width="525" height="52" as="geometry" />
        </mxCell>
        <mxCell id="ucCqyxC-0t8KOgPkOFW8-56" value="1" style="shape=partialRectangle;html=1;whiteSpace=wrap;connectable=0;strokeColor=#b46504;overflow=hidden;fillColor=#FFD470;top=0;left=0;bottom=0;right=0;pointerEvents=1;" vertex="1" parent="ucCqyxC-0t8KOgPkOFW8-55">
          <mxGeometry width="68" height="52" as="geometry">
            <mxRectangle width="68" height="52" as="alternateBounds" />
          </mxGeometry>
        </mxCell>
        <mxCell id="ucCqyxC-0t8KOgPkOFW8-57" value="ALLOW" style="shape=partialRectangle;html=1;whiteSpace=wrap;connectable=0;strokeColor=#b46504;overflow=hidden;fillColor=#FFD470;top=0;left=0;bottom=0;right=0;pointerEvents=1;" vertex="1" parent="ucCqyxC-0t8KOgPkOFW8-55">
          <mxGeometry x="68" width="69" height="52" as="geometry">
            <mxRectangle width="69" height="52" as="alternateBounds" />
          </mxGeometry>
        </mxCell>
        <mxCell id="ucCqyxC-0t8KOgPkOFW8-58" value="SORTANT" style="shape=partialRectangle;html=1;whiteSpace=wrap;connectable=0;strokeColor=#b46504;overflow=hidden;fillColor=#FFD470;top=0;left=0;bottom=0;right=0;pointerEvents=1;" vertex="1" parent="ucCqyxC-0t8KOgPkOFW8-55">
          <mxGeometry x="137" width="68" height="52" as="geometry">
            <mxRectangle width="68" height="52" as="alternateBounds" />
          </mxGeometry>
        </mxCell>
        <mxCell id="ucCqyxC-0t8KOgPkOFW8-59" value="Postes&lt;br&gt;courants" style="shape=partialRectangle;html=1;whiteSpace=wrap;connectable=0;strokeColor=#b46504;overflow=hidden;fillColor=#FFD470;top=0;left=0;bottom=0;right=0;pointerEvents=1;" vertex="1" parent="ucCqyxC-0t8KOgPkOFW8-55">
          <mxGeometry x="205" width="68" height="52" as="geometry">
            <mxRectangle width="68" height="52" as="alternateBounds" />
          </mxGeometry>
        </mxCell>
        <mxCell id="ucCqyxC-0t8KOgPkOFW8-60" value="TCP/80&lt;br&gt;TCP/443" style="shape=partialRectangle;html=1;whiteSpace=wrap;connectable=0;strokeColor=#b46504;overflow=hidden;fillColor=#FFD470;top=0;left=0;bottom=0;right=0;pointerEvents=1;" vertex="1" parent="ucCqyxC-0t8KOgPkOFW8-55">
          <mxGeometry x="273" width="77" height="52" as="geometry">
            <mxRectangle width="77" height="52" as="alternateBounds" />
          </mxGeometry>
        </mxCell>
        <mxCell id="ucCqyxC-0t8KOgPkOFW8-61" value="Accès internet &lt;br&gt;pour les besoins métiers" style="shape=partialRectangle;html=1;whiteSpace=wrap;connectable=0;strokeColor=#b46504;overflow=hidden;fillColor=#FFD470;top=0;left=0;bottom=0;right=0;pointerEvents=1;" vertex="1" parent="ucCqyxC-0t8KOgPkOFW8-55">
          <mxGeometry x="350" width="175" height="52" as="geometry">
            <mxRectangle width="175" height="52" as="alternateBounds" />
          </mxGeometry>
        </mxCell>
        <mxCell id="ucCqyxC-0t8KOgPkOFW8-62" value="" style="shape=tableRow;horizontal=0;startSize=0;swimlaneHead=0;swimlaneBody=0;strokeColor=#b46504;top=0;left=0;bottom=0;right=0;collapsible=0;dropTarget=0;fillColor=#FFD470;points=[[0,0.5],[1,0.5]];portConstraint=eastwest;" vertex="1" parent="ucCqyxC-0t8KOgPkOFW8-47">
          <mxGeometry y="104" width="525" height="52" as="geometry" />
        </mxCell>
        <mxCell id="ucCqyxC-0t8KOgPkOFW8-63" value="&lt;div&gt;2&lt;/div&gt;" style="shape=partialRectangle;html=1;whiteSpace=wrap;connectable=0;strokeColor=#b46504;overflow=hidden;fillColor=#FFD470;top=0;left=0;bottom=0;right=0;pointerEvents=1;" vertex="1" parent="ucCqyxC-0t8KOgPkOFW8-62">
          <mxGeometry width="68" height="52" as="geometry">
            <mxRectangle width="68" height="52" as="alternateBounds" />
          </mxGeometry>
        </mxCell>
        <mxCell id="ucCqyxC-0t8KOgPkOFW8-64" value="ALLOW" style="shape=partialRectangle;html=1;whiteSpace=wrap;connectable=0;strokeColor=#b46504;overflow=hidden;fillColor=#FFD470;top=0;left=0;bottom=0;right=0;pointerEvents=1;" vertex="1" parent="ucCqyxC-0t8KOgPkOFW8-62">
          <mxGeometry x="68" width="69" height="52" as="geometry">
            <mxRectangle width="69" height="52" as="alternateBounds" />
          </mxGeometry>
        </mxCell>
        <mxCell id="ucCqyxC-0t8KOgPkOFW8-65" value="SORTANT" style="shape=partialRectangle;html=1;whiteSpace=wrap;connectable=0;strokeColor=#b46504;overflow=hidden;fillColor=#FFD470;top=0;left=0;bottom=0;right=0;pointerEvents=1;" vertex="1" parent="ucCqyxC-0t8KOgPkOFW8-62">
          <mxGeometry x="137" width="68" height="52" as="geometry">
            <mxRectangle width="68" height="52" as="alternateBounds" />
          </mxGeometry>
        </mxCell>
        <mxCell id="ucCqyxC-0t8KOgPkOFW8-66" value="Node" style="shape=partialRectangle;html=1;whiteSpace=wrap;connectable=0;strokeColor=#b46504;overflow=hidden;fillColor=#FFD470;top=0;left=0;bottom=0;right=0;pointerEvents=1;" vertex="1" parent="ucCqyxC-0t8KOgPkOFW8-62">
          <mxGeometry x="205" width="68" height="52" as="geometry">
            <mxRectangle width="68" height="52" as="alternateBounds" />
          </mxGeometry>
        </mxCell>
        <mxCell id="ucCqyxC-0t8KOgPkOFW8-67" value="TCP/443&lt;br&gt;UDP/41641" style="shape=partialRectangle;html=1;whiteSpace=wrap;connectable=0;strokeColor=#b46504;overflow=hidden;fillColor=#FFD470;top=0;left=0;bottom=0;right=0;pointerEvents=1;" vertex="1" parent="ucCqyxC-0t8KOgPkOFW8-62">
          <mxGeometry x="273" width="77" height="52" as="geometry">
            <mxRectangle width="77" height="52" as="alternateBounds" />
          </mxGeometry>
        </mxCell>
        <mxCell id="ucCqyxC-0t8KOgPkOFW8-68" value="Permet de faire&lt;br&gt;fonctionner Tailscale" style="shape=partialRectangle;html=1;whiteSpace=wrap;connectable=0;strokeColor=#b46504;overflow=hidden;fillColor=#FFD470;top=0;left=0;bottom=0;right=0;pointerEvents=1;" vertex="1" parent="ucCqyxC-0t8KOgPkOFW8-62">
          <mxGeometry x="350" width="175" height="52" as="geometry">
            <mxRectangle width="175" height="52" as="alternateBounds" />
          </mxGeometry>
        </mxCell>
        <mxCell id="ucCqyxC-0t8KOgPkOFW8-69" value="" style="shape=tableRow;horizontal=0;startSize=0;swimlaneHead=0;swimlaneBody=0;strokeColor=#b46504;top=0;left=0;bottom=0;right=0;collapsible=0;dropTarget=0;fillColor=#FFD470;points=[[0,0.5],[1,0.5]];portConstraint=eastwest;" vertex="1" parent="ucCqyxC-0t8KOgPkOFW8-47">
          <mxGeometry y="156" width="525" height="52" as="geometry" />
        </mxCell>
        <mxCell id="ucCqyxC-0t8KOgPkOFW8-70" value="3" style="shape=partialRectangle;html=1;whiteSpace=wrap;connectable=0;strokeColor=#b46504;overflow=hidden;fillColor=#FFD470;top=0;left=0;bottom=0;right=0;pointerEvents=1;" vertex="1" parent="ucCqyxC-0t8KOgPkOFW8-69">
          <mxGeometry width="68" height="52" as="geometry">
            <mxRectangle width="68" height="52" as="alternateBounds" />
          </mxGeometry>
        </mxCell>
        <mxCell id="ucCqyxC-0t8KOgPkOFW8-71" value="DENY" style="shape=partialRectangle;html=1;whiteSpace=wrap;connectable=0;strokeColor=#b46504;overflow=hidden;fillColor=#FFD470;top=0;left=0;bottom=0;right=0;pointerEvents=1;" vertex="1" parent="ucCqyxC-0t8KOgPkOFW8-69">
          <mxGeometry x="68" width="69" height="52" as="geometry">
            <mxRectangle width="69" height="52" as="alternateBounds" />
          </mxGeometry>
        </mxCell>
        <mxCell id="ucCqyxC-0t8KOgPkOFW8-72" value="SORTANT" style="shape=partialRectangle;html=1;whiteSpace=wrap;connectable=0;strokeColor=#b46504;overflow=hidden;fillColor=#FFD470;top=0;left=0;bottom=0;right=0;pointerEvents=1;" vertex="1" parent="ucCqyxC-0t8KOgPkOFW8-69">
          <mxGeometry x="137" width="68" height="52" as="geometry">
            <mxRectangle width="68" height="52" as="alternateBounds" />
          </mxGeometry>
        </mxCell>
        <mxCell id="ucCqyxC-0t8KOgPkOFW8-73" value="any" style="shape=partialRectangle;html=1;whiteSpace=wrap;connectable=0;strokeColor=#b46504;overflow=hidden;fillColor=#FFD470;top=0;left=0;bottom=0;right=0;pointerEvents=1;" vertex="1" parent="ucCqyxC-0t8KOgPkOFW8-69">
          <mxGeometry x="205" width="68" height="52" as="geometry">
            <mxRectangle width="68" height="52" as="alternateBounds" />
          </mxGeometry>
        </mxCell>
        <mxCell id="ucCqyxC-0t8KOgPkOFW8-74" value="any" style="shape=partialRectangle;html=1;whiteSpace=wrap;connectable=0;strokeColor=#b46504;overflow=hidden;fillColor=#FFD470;top=0;left=0;bottom=0;right=0;pointerEvents=1;" vertex="1" parent="ucCqyxC-0t8KOgPkOFW8-69">
          <mxGeometry x="273" width="77" height="52" as="geometry">
            <mxRectangle width="77" height="52" as="alternateBounds" />
          </mxGeometry>
        </mxCell>
        <mxCell id="ucCqyxC-0t8KOgPkOFW8-75" value="Bloque tout autre trafic sortant" style="shape=partialRectangle;html=1;whiteSpace=wrap;connectable=0;strokeColor=#b46504;overflow=hidden;fillColor=#FFD470;top=0;left=0;bottom=0;right=0;pointerEvents=1;" vertex="1" parent="ucCqyxC-0t8KOgPkOFW8-69">
          <mxGeometry x="350" width="175" height="52" as="geometry">
            <mxRectangle width="175" height="52" as="alternateBounds" />
          </mxGeometry>
        </mxCell>
        <mxCell id="ucCqyxC-0t8KOgPkOFW8-76" value="" style="shape=tableRow;horizontal=0;startSize=0;swimlaneHead=0;swimlaneBody=0;strokeColor=#b46504;top=0;left=0;bottom=0;right=0;collapsible=0;dropTarget=0;fillColor=#FFD470;points=[[0,0.5],[1,0.5]];portConstraint=eastwest;" vertex="1" parent="ucCqyxC-0t8KOgPkOFW8-47">
          <mxGeometry y="208" width="525" height="52" as="geometry" />
        </mxCell>
        <mxCell id="ucCqyxC-0t8KOgPkOFW8-77" value="4" style="shape=partialRectangle;html=1;whiteSpace=wrap;connectable=0;strokeColor=#b46504;overflow=hidden;fillColor=#FFD470;top=0;left=0;bottom=0;right=0;pointerEvents=1;" vertex="1" parent="ucCqyxC-0t8KOgPkOFW8-76">
          <mxGeometry width="68" height="52" as="geometry">
            <mxRectangle width="68" height="52" as="alternateBounds" />
          </mxGeometry>
        </mxCell>
        <mxCell id="ucCqyxC-0t8KOgPkOFW8-78" value="DENY" style="shape=partialRectangle;html=1;whiteSpace=wrap;connectable=0;strokeColor=#b46504;overflow=hidden;fillColor=#FFD470;top=0;left=0;bottom=0;right=0;pointerEvents=1;" vertex="1" parent="ucCqyxC-0t8KOgPkOFW8-76">
          <mxGeometry x="68" width="69" height="52" as="geometry">
            <mxRectangle width="69" height="52" as="alternateBounds" />
          </mxGeometry>
        </mxCell>
        <mxCell id="ucCqyxC-0t8KOgPkOFW8-79" value="ENTRANT" style="shape=partialRectangle;html=1;whiteSpace=wrap;connectable=0;strokeColor=#b46504;overflow=hidden;fillColor=#FFD470;top=0;left=0;bottom=0;right=0;pointerEvents=1;" vertex="1" parent="ucCqyxC-0t8KOgPkOFW8-76">
          <mxGeometry x="137" width="68" height="52" as="geometry">
            <mxRectangle width="68" height="52" as="alternateBounds" />
          </mxGeometry>
        </mxCell>
        <mxCell id="ucCqyxC-0t8KOgPkOFW8-80" value="any" style="shape=partialRectangle;html=1;whiteSpace=wrap;connectable=0;strokeColor=#b46504;overflow=hidden;fillColor=#FFD470;top=0;left=0;bottom=0;right=0;pointerEvents=1;" vertex="1" parent="ucCqyxC-0t8KOgPkOFW8-76">
          <mxGeometry x="205" width="68" height="52" as="geometry">
            <mxRectangle width="68" height="52" as="alternateBounds" />
          </mxGeometry>
        </mxCell>
        <mxCell id="ucCqyxC-0t8KOgPkOFW8-81" value="any" style="shape=partialRectangle;html=1;whiteSpace=wrap;connectable=0;strokeColor=#b46504;overflow=hidden;fillColor=#FFD470;top=0;left=0;bottom=0;right=0;pointerEvents=1;" vertex="1" parent="ucCqyxC-0t8KOgPkOFW8-76">
          <mxGeometry x="273" width="77" height="52" as="geometry">
            <mxRectangle width="77" height="52" as="alternateBounds" />
          </mxGeometry>
        </mxCell>
        <mxCell id="ucCqyxC-0t8KOgPkOFW8-82" value="Bloque tout le trafic entrant" style="shape=partialRectangle;html=1;whiteSpace=wrap;connectable=0;strokeColor=#b46504;overflow=hidden;fillColor=#FFD470;top=0;left=0;bottom=0;right=0;pointerEvents=1;" vertex="1" parent="ucCqyxC-0t8KOgPkOFW8-76">
          <mxGeometry x="350" width="175" height="52" as="geometry">
            <mxRectangle width="175" height="52" as="alternateBounds" />
          </mxGeometry>
        </mxCell>
        <mxCell id="ucCqyxC-0t8KOgPkOFW8-83" value="&lt;font style=&quot;font-size: 18px;&quot;&gt;Parefeu collectivité locale #1&lt;/font&gt;" style="text;html=1;align=center;verticalAlign=middle;resizable=0;points=[];autosize=1;strokeColor=#b46504;fillColor=#FFD470;" vertex="1" parent="1">
          <mxGeometry x="323" y="1360" width="230" height="40" as="geometry" />
        </mxCell>
        <mxCell id="ucCqyxC-0t8KOgPkOFW8-84" value="" style="shape=table;startSize=0;container=1;collapsible=0;childLayout=tableLayout;fillColor=#f8cecc;strokeColor=#b85450;strokeWidth=1;perimeterSpacing=0;swimlaneLine=0;rounded=0;gradientColor=none;swimlaneFillColor=none;" vertex="1" parent="1">
          <mxGeometry x="1340" y="1417" width="525" height="260" as="geometry" />
        </mxCell>
        <mxCell id="ucCqyxC-0t8KOgPkOFW8-85" value="" style="shape=tableRow;horizontal=0;startSize=0;swimlaneHead=0;swimlaneBody=0;strokeColor=#b85450;top=0;left=0;bottom=0;right=0;collapsible=0;dropTarget=0;fillColor=#f8cecc;points=[[0,0.5],[1,0.5]];portConstraint=eastwest;swimlaneLine=1;gradientColor=none;swimlaneFillColor=none;" vertex="1" parent="ucCqyxC-0t8KOgPkOFW8-84">
          <mxGeometry width="525" height="52" as="geometry" />
        </mxCell>
        <mxCell id="ucCqyxC-0t8KOgPkOFW8-86" value="Règle" style="shape=partialRectangle;html=1;whiteSpace=wrap;connectable=0;strokeColor=#b85450;overflow=hidden;fillColor=#f8cecc;top=0;left=0;bottom=0;right=0;pointerEvents=1;swimlaneLine=1;gradientColor=none;swimlaneFillColor=none;" vertex="1" parent="ucCqyxC-0t8KOgPkOFW8-85">
          <mxGeometry width="68" height="52" as="geometry">
            <mxRectangle width="68" height="52" as="alternateBounds" />
          </mxGeometry>
        </mxCell>
        <mxCell id="ucCqyxC-0t8KOgPkOFW8-87" value="Action" style="shape=partialRectangle;html=1;whiteSpace=wrap;connectable=0;strokeColor=#b85450;overflow=hidden;fillColor=#f8cecc;top=0;left=0;bottom=0;right=0;pointerEvents=1;swimlaneLine=1;gradientColor=none;swimlaneFillColor=none;" vertex="1" parent="ucCqyxC-0t8KOgPkOFW8-85">
          <mxGeometry x="68" width="69" height="52" as="geometry">
            <mxRectangle width="69" height="52" as="alternateBounds" />
          </mxGeometry>
        </mxCell>
        <mxCell id="ucCqyxC-0t8KOgPkOFW8-88" value="Direction" style="shape=partialRectangle;html=1;whiteSpace=wrap;connectable=0;strokeColor=#b85450;overflow=hidden;fillColor=#f8cecc;top=0;left=0;bottom=0;right=0;pointerEvents=1;swimlaneLine=1;gradientColor=none;swimlaneFillColor=none;" vertex="1" parent="ucCqyxC-0t8KOgPkOFW8-85">
          <mxGeometry x="137" width="68" height="52" as="geometry">
            <mxRectangle width="68" height="52" as="alternateBounds" />
          </mxGeometry>
        </mxCell>
        <mxCell id="ucCqyxC-0t8KOgPkOFW8-89" value="Source" style="shape=partialRectangle;html=1;whiteSpace=wrap;connectable=0;strokeColor=#b85450;overflow=hidden;fillColor=#f8cecc;top=0;left=0;bottom=0;right=0;pointerEvents=1;swimlaneLine=1;gradientColor=none;swimlaneFillColor=none;" vertex="1" parent="ucCqyxC-0t8KOgPkOFW8-85">
          <mxGeometry x="205" width="68" height="52" as="geometry">
            <mxRectangle width="68" height="52" as="alternateBounds" />
          </mxGeometry>
        </mxCell>
        <mxCell id="ucCqyxC-0t8KOgPkOFW8-90" value="Port" style="shape=partialRectangle;html=1;whiteSpace=wrap;connectable=0;strokeColor=#b85450;overflow=hidden;fillColor=#f8cecc;top=0;left=0;bottom=0;right=0;pointerEvents=1;swimlaneLine=1;gradientColor=none;swimlaneFillColor=none;" vertex="1" parent="ucCqyxC-0t8KOgPkOFW8-85">
          <mxGeometry x="273" width="77" height="52" as="geometry">
            <mxRectangle width="77" height="52" as="alternateBounds" />
          </mxGeometry>
        </mxCell>
        <mxCell id="ucCqyxC-0t8KOgPkOFW8-91" value="Description" style="shape=partialRectangle;html=1;whiteSpace=wrap;connectable=0;strokeColor=#b85450;overflow=hidden;fillColor=#f8cecc;top=0;left=0;bottom=0;right=0;pointerEvents=1;swimlaneLine=1;gradientColor=none;swimlaneFillColor=none;" vertex="1" parent="ucCqyxC-0t8KOgPkOFW8-85">
          <mxGeometry x="350" width="175" height="52" as="geometry">
            <mxRectangle width="175" height="52" as="alternateBounds" />
          </mxGeometry>
        </mxCell>
        <mxCell id="ucCqyxC-0t8KOgPkOFW8-92" value="" style="shape=tableRow;horizontal=0;startSize=0;swimlaneHead=0;swimlaneBody=0;strokeColor=#b85450;top=0;left=0;bottom=0;right=0;collapsible=0;dropTarget=0;fillColor=#f8cecc;points=[[0,0.5],[1,0.5]];portConstraint=eastwest;swimlaneLine=1;gradientColor=none;swimlaneFillColor=none;" vertex="1" parent="ucCqyxC-0t8KOgPkOFW8-84">
          <mxGeometry y="52" width="525" height="52" as="geometry" />
        </mxCell>
        <mxCell id="ucCqyxC-0t8KOgPkOFW8-93" value="1" style="shape=partialRectangle;html=1;whiteSpace=wrap;connectable=0;strokeColor=#b85450;overflow=hidden;fillColor=#f8cecc;top=0;left=0;bottom=0;right=0;pointerEvents=1;swimlaneLine=1;gradientColor=none;swimlaneFillColor=none;" vertex="1" parent="ucCqyxC-0t8KOgPkOFW8-92">
          <mxGeometry width="68" height="52" as="geometry">
            <mxRectangle width="68" height="52" as="alternateBounds" />
          </mxGeometry>
        </mxCell>
        <mxCell id="ucCqyxC-0t8KOgPkOFW8-94" value="ALLOW" style="shape=partialRectangle;html=1;whiteSpace=wrap;connectable=0;strokeColor=#b85450;overflow=hidden;fillColor=#f8cecc;top=0;left=0;bottom=0;right=0;pointerEvents=1;swimlaneLine=1;gradientColor=none;swimlaneFillColor=none;" vertex="1" parent="ucCqyxC-0t8KOgPkOFW8-92">
          <mxGeometry x="68" width="69" height="52" as="geometry">
            <mxRectangle width="69" height="52" as="alternateBounds" />
          </mxGeometry>
        </mxCell>
        <mxCell id="ucCqyxC-0t8KOgPkOFW8-95" value="SORTANT" style="shape=partialRectangle;html=1;whiteSpace=wrap;connectable=0;strokeColor=#b85450;overflow=hidden;fillColor=#f8cecc;top=0;left=0;bottom=0;right=0;pointerEvents=1;swimlaneLine=1;gradientColor=none;swimlaneFillColor=none;" vertex="1" parent="ucCqyxC-0t8KOgPkOFW8-92">
          <mxGeometry x="137" width="68" height="52" as="geometry">
            <mxRectangle width="68" height="52" as="alternateBounds" />
          </mxGeometry>
        </mxCell>
        <mxCell id="ucCqyxC-0t8KOgPkOFW8-96" value="any" style="shape=partialRectangle;html=1;whiteSpace=wrap;connectable=0;strokeColor=#b85450;overflow=hidden;fillColor=#f8cecc;top=0;left=0;bottom=0;right=0;pointerEvents=1;swimlaneLine=1;gradientColor=none;swimlaneFillColor=none;" vertex="1" parent="ucCqyxC-0t8KOgPkOFW8-92">
          <mxGeometry x="205" width="68" height="52" as="geometry">
            <mxRectangle width="68" height="52" as="alternateBounds" />
          </mxGeometry>
        </mxCell>
        <mxCell id="ucCqyxC-0t8KOgPkOFW8-97" value="TCP/80&lt;br&gt;TCP/443" style="shape=partialRectangle;html=1;whiteSpace=wrap;connectable=0;strokeColor=#b85450;overflow=hidden;fillColor=#f8cecc;top=0;left=0;bottom=0;right=0;pointerEvents=1;swimlaneLine=1;gradientColor=none;swimlaneFillColor=none;" vertex="1" parent="ucCqyxC-0t8KOgPkOFW8-92">
          <mxGeometry x="273" width="77" height="52" as="geometry">
            <mxRectangle width="77" height="52" as="alternateBounds" />
          </mxGeometry>
        </mxCell>
        <mxCell id="ucCqyxC-0t8KOgPkOFW8-98" value="Accès internet &lt;br&gt;pour les besoins métiers" style="shape=partialRectangle;html=1;whiteSpace=wrap;connectable=0;strokeColor=#b85450;overflow=hidden;fillColor=#f8cecc;top=0;left=0;bottom=0;right=0;pointerEvents=1;swimlaneLine=1;gradientColor=none;swimlaneFillColor=none;" vertex="1" parent="ucCqyxC-0t8KOgPkOFW8-92">
          <mxGeometry x="350" width="175" height="52" as="geometry">
            <mxRectangle width="175" height="52" as="alternateBounds" />
          </mxGeometry>
        </mxCell>
        <mxCell id="ucCqyxC-0t8KOgPkOFW8-99" value="" style="shape=tableRow;horizontal=0;startSize=0;swimlaneHead=0;swimlaneBody=0;strokeColor=#b85450;top=0;left=0;bottom=0;right=0;collapsible=0;dropTarget=0;fillColor=#f8cecc;points=[[0,0.5],[1,0.5]];portConstraint=eastwest;swimlaneLine=1;gradientColor=none;swimlaneFillColor=none;" vertex="1" parent="ucCqyxC-0t8KOgPkOFW8-84">
          <mxGeometry y="104" width="525" height="52" as="geometry" />
        </mxCell>
        <mxCell id="ucCqyxC-0t8KOgPkOFW8-100" value="&lt;div&gt;2&lt;/div&gt;" style="shape=partialRectangle;html=1;whiteSpace=wrap;connectable=0;strokeColor=#b85450;overflow=hidden;fillColor=#f8cecc;top=0;left=0;bottom=0;right=0;pointerEvents=1;swimlaneLine=1;gradientColor=none;swimlaneFillColor=none;" vertex="1" parent="ucCqyxC-0t8KOgPkOFW8-99">
          <mxGeometry width="68" height="52" as="geometry">
            <mxRectangle width="68" height="52" as="alternateBounds" />
          </mxGeometry>
        </mxCell>
        <mxCell id="ucCqyxC-0t8KOgPkOFW8-101" value="ALLOW" style="shape=partialRectangle;html=1;whiteSpace=wrap;connectable=0;strokeColor=#b85450;overflow=hidden;fillColor=#f8cecc;top=0;left=0;bottom=0;right=0;pointerEvents=1;swimlaneLine=1;gradientColor=none;swimlaneFillColor=none;" vertex="1" parent="ucCqyxC-0t8KOgPkOFW8-99">
          <mxGeometry x="68" width="69" height="52" as="geometry">
            <mxRectangle width="69" height="52" as="alternateBounds" />
          </mxGeometry>
        </mxCell>
        <mxCell id="ucCqyxC-0t8KOgPkOFW8-102" value="SORTANT" style="shape=partialRectangle;html=1;whiteSpace=wrap;connectable=0;strokeColor=#b85450;overflow=hidden;fillColor=#f8cecc;top=0;left=0;bottom=0;right=0;pointerEvents=1;swimlaneLine=1;gradientColor=none;swimlaneFillColor=none;" vertex="1" parent="ucCqyxC-0t8KOgPkOFW8-99">
          <mxGeometry x="137" width="68" height="52" as="geometry">
            <mxRectangle width="68" height="52" as="alternateBounds" />
          </mxGeometry>
        </mxCell>
        <mxCell id="ucCqyxC-0t8KOgPkOFW8-103" value="any" style="shape=partialRectangle;html=1;whiteSpace=wrap;connectable=0;strokeColor=#b85450;overflow=hidden;fillColor=#f8cecc;top=0;left=0;bottom=0;right=0;pointerEvents=1;swimlaneLine=1;gradientColor=none;swimlaneFillColor=none;" vertex="1" parent="ucCqyxC-0t8KOgPkOFW8-99">
          <mxGeometry x="205" width="68" height="52" as="geometry">
            <mxRectangle width="68" height="52" as="alternateBounds" />
          </mxGeometry>
        </mxCell>
        <mxCell id="ucCqyxC-0t8KOgPkOFW8-104" value="TCP/443&lt;br&gt;UDP/41641" style="shape=partialRectangle;html=1;whiteSpace=wrap;connectable=0;strokeColor=#b85450;overflow=hidden;fillColor=#f8cecc;top=0;left=0;bottom=0;right=0;pointerEvents=1;swimlaneLine=1;gradientColor=none;swimlaneFillColor=none;" vertex="1" parent="ucCqyxC-0t8KOgPkOFW8-99">
          <mxGeometry x="273" width="77" height="52" as="geometry">
            <mxRectangle width="77" height="52" as="alternateBounds" />
          </mxGeometry>
        </mxCell>
        <mxCell id="ucCqyxC-0t8KOgPkOFW8-105" value="Permet de faire&lt;br&gt;fonctionner Tailscale" style="shape=partialRectangle;html=1;whiteSpace=wrap;connectable=0;strokeColor=#b85450;overflow=hidden;fillColor=#f8cecc;top=0;left=0;bottom=0;right=0;pointerEvents=1;swimlaneLine=1;gradientColor=none;swimlaneFillColor=none;" vertex="1" parent="ucCqyxC-0t8KOgPkOFW8-99">
          <mxGeometry x="350" width="175" height="52" as="geometry">
            <mxRectangle width="175" height="52" as="alternateBounds" />
          </mxGeometry>
        </mxCell>
        <mxCell id="ucCqyxC-0t8KOgPkOFW8-106" value="" style="shape=tableRow;horizontal=0;startSize=0;swimlaneHead=0;swimlaneBody=0;strokeColor=#b85450;top=0;left=0;bottom=0;right=0;collapsible=0;dropTarget=0;fillColor=#f8cecc;points=[[0,0.5],[1,0.5]];portConstraint=eastwest;swimlaneLine=1;gradientColor=none;swimlaneFillColor=none;" vertex="1" parent="ucCqyxC-0t8KOgPkOFW8-84">
          <mxGeometry y="156" width="525" height="52" as="geometry" />
        </mxCell>
        <mxCell id="ucCqyxC-0t8KOgPkOFW8-107" value="3" style="shape=partialRectangle;html=1;whiteSpace=wrap;connectable=0;strokeColor=#b85450;overflow=hidden;fillColor=#f8cecc;top=0;left=0;bottom=0;right=0;pointerEvents=1;swimlaneLine=1;gradientColor=none;swimlaneFillColor=none;" vertex="1" parent="ucCqyxC-0t8KOgPkOFW8-106">
          <mxGeometry width="68" height="52" as="geometry">
            <mxRectangle width="68" height="52" as="alternateBounds" />
          </mxGeometry>
        </mxCell>
        <mxCell id="ucCqyxC-0t8KOgPkOFW8-108" value="DENY" style="shape=partialRectangle;html=1;whiteSpace=wrap;connectable=0;strokeColor=#b85450;overflow=hidden;fillColor=#f8cecc;top=0;left=0;bottom=0;right=0;pointerEvents=1;swimlaneLine=1;gradientColor=none;swimlaneFillColor=none;" vertex="1" parent="ucCqyxC-0t8KOgPkOFW8-106">
          <mxGeometry x="68" width="69" height="52" as="geometry">
            <mxRectangle width="69" height="52" as="alternateBounds" />
          </mxGeometry>
        </mxCell>
        <mxCell id="ucCqyxC-0t8KOgPkOFW8-109" value="SORTANT" style="shape=partialRectangle;html=1;whiteSpace=wrap;connectable=0;strokeColor=#b85450;overflow=hidden;fillColor=#f8cecc;top=0;left=0;bottom=0;right=0;pointerEvents=1;swimlaneLine=1;gradientColor=none;swimlaneFillColor=none;" vertex="1" parent="ucCqyxC-0t8KOgPkOFW8-106">
          <mxGeometry x="137" width="68" height="52" as="geometry">
            <mxRectangle width="68" height="52" as="alternateBounds" />
          </mxGeometry>
        </mxCell>
        <mxCell id="ucCqyxC-0t8KOgPkOFW8-110" value="any" style="shape=partialRectangle;html=1;whiteSpace=wrap;connectable=0;strokeColor=#b85450;overflow=hidden;fillColor=#f8cecc;top=0;left=0;bottom=0;right=0;pointerEvents=1;swimlaneLine=1;gradientColor=none;swimlaneFillColor=none;" vertex="1" parent="ucCqyxC-0t8KOgPkOFW8-106">
          <mxGeometry x="205" width="68" height="52" as="geometry">
            <mxRectangle width="68" height="52" as="alternateBounds" />
          </mxGeometry>
        </mxCell>
        <mxCell id="ucCqyxC-0t8KOgPkOFW8-111" value="any" style="shape=partialRectangle;html=1;whiteSpace=wrap;connectable=0;strokeColor=#b85450;overflow=hidden;fillColor=#f8cecc;top=0;left=0;bottom=0;right=0;pointerEvents=1;swimlaneLine=1;gradientColor=none;swimlaneFillColor=none;" vertex="1" parent="ucCqyxC-0t8KOgPkOFW8-106">
          <mxGeometry x="273" width="77" height="52" as="geometry">
            <mxRectangle width="77" height="52" as="alternateBounds" />
          </mxGeometry>
        </mxCell>
        <mxCell id="ucCqyxC-0t8KOgPkOFW8-112" value="Bloque tout autre trafic sortant" style="shape=partialRectangle;html=1;whiteSpace=wrap;connectable=0;strokeColor=#b85450;overflow=hidden;fillColor=#f8cecc;top=0;left=0;bottom=0;right=0;pointerEvents=1;swimlaneLine=1;gradientColor=none;swimlaneFillColor=none;" vertex="1" parent="ucCqyxC-0t8KOgPkOFW8-106">
          <mxGeometry x="350" width="175" height="52" as="geometry">
            <mxRectangle width="175" height="52" as="alternateBounds" />
          </mxGeometry>
        </mxCell>
        <mxCell id="ucCqyxC-0t8KOgPkOFW8-113" value="" style="shape=tableRow;horizontal=0;startSize=0;swimlaneHead=0;swimlaneBody=0;strokeColor=#b85450;top=0;left=0;bottom=0;right=0;collapsible=0;dropTarget=0;fillColor=#f8cecc;points=[[0,0.5],[1,0.5]];portConstraint=eastwest;swimlaneLine=1;gradientColor=none;swimlaneFillColor=none;" vertex="1" parent="ucCqyxC-0t8KOgPkOFW8-84">
          <mxGeometry y="208" width="525" height="52" as="geometry" />
        </mxCell>
        <mxCell id="ucCqyxC-0t8KOgPkOFW8-114" value="4" style="shape=partialRectangle;html=1;whiteSpace=wrap;connectable=0;strokeColor=#b85450;overflow=hidden;fillColor=#f8cecc;top=0;left=0;bottom=0;right=0;pointerEvents=1;swimlaneLine=1;gradientColor=none;swimlaneFillColor=none;" vertex="1" parent="ucCqyxC-0t8KOgPkOFW8-113">
          <mxGeometry width="68" height="52" as="geometry">
            <mxRectangle width="68" height="52" as="alternateBounds" />
          </mxGeometry>
        </mxCell>
        <mxCell id="ucCqyxC-0t8KOgPkOFW8-115" value="DENY" style="shape=partialRectangle;html=1;whiteSpace=wrap;connectable=0;strokeColor=#b85450;overflow=hidden;fillColor=#f8cecc;top=0;left=0;bottom=0;right=0;pointerEvents=1;swimlaneLine=1;gradientColor=none;swimlaneFillColor=none;" vertex="1" parent="ucCqyxC-0t8KOgPkOFW8-113">
          <mxGeometry x="68" width="69" height="52" as="geometry">
            <mxRectangle width="69" height="52" as="alternateBounds" />
          </mxGeometry>
        </mxCell>
        <mxCell id="ucCqyxC-0t8KOgPkOFW8-116" value="ENTRANT" style="shape=partialRectangle;html=1;whiteSpace=wrap;connectable=0;strokeColor=#b85450;overflow=hidden;fillColor=#f8cecc;top=0;left=0;bottom=0;right=0;pointerEvents=1;swimlaneLine=1;gradientColor=none;swimlaneFillColor=none;" vertex="1" parent="ucCqyxC-0t8KOgPkOFW8-113">
          <mxGeometry x="137" width="68" height="52" as="geometry">
            <mxRectangle width="68" height="52" as="alternateBounds" />
          </mxGeometry>
        </mxCell>
        <mxCell id="ucCqyxC-0t8KOgPkOFW8-117" value="any" style="shape=partialRectangle;html=1;whiteSpace=wrap;connectable=0;strokeColor=#b85450;overflow=hidden;fillColor=#f8cecc;top=0;left=0;bottom=0;right=0;pointerEvents=1;swimlaneLine=1;gradientColor=none;swimlaneFillColor=none;" vertex="1" parent="ucCqyxC-0t8KOgPkOFW8-113">
          <mxGeometry x="205" width="68" height="52" as="geometry">
            <mxRectangle width="68" height="52" as="alternateBounds" />
          </mxGeometry>
        </mxCell>
        <mxCell id="ucCqyxC-0t8KOgPkOFW8-118" value="any" style="shape=partialRectangle;html=1;whiteSpace=wrap;connectable=0;strokeColor=#b85450;overflow=hidden;fillColor=#f8cecc;top=0;left=0;bottom=0;right=0;pointerEvents=1;swimlaneLine=1;gradientColor=none;swimlaneFillColor=none;" vertex="1" parent="ucCqyxC-0t8KOgPkOFW8-113">
          <mxGeometry x="273" width="77" height="52" as="geometry">
            <mxRectangle width="77" height="52" as="alternateBounds" />
          </mxGeometry>
        </mxCell>
        <mxCell id="ucCqyxC-0t8KOgPkOFW8-119" value="Bloque tout le trafic entrant" style="shape=partialRectangle;html=1;whiteSpace=wrap;connectable=0;strokeColor=#b85450;overflow=hidden;fillColor=#f8cecc;top=0;left=0;bottom=0;right=0;pointerEvents=1;swimlaneLine=1;gradientColor=none;swimlaneFillColor=none;" vertex="1" parent="ucCqyxC-0t8KOgPkOFW8-113">
          <mxGeometry x="350" width="175" height="52" as="geometry">
            <mxRectangle width="175" height="52" as="alternateBounds" />
          </mxGeometry>
        </mxCell>
        <mxCell id="ucCqyxC-0t8KOgPkOFW8-120" value="&lt;font style=&quot;font-size: 18px;&quot;&gt;Parefeu SOCme&lt;/font&gt;" style="text;html=1;align=center;verticalAlign=middle;resizable=0;points=[];autosize=1;strokeColor=#b85450;fillColor=#f8cecc;gradientColor=none;swimlaneFillColor=none;" vertex="1" parent="1">
          <mxGeometry x="1530" y="1360" width="140" height="40" as="geometry" />
        </mxCell>
        <mxCell id="ucCqyxC-0t8KOgPkOFW8-121" value="Analyste" style="verticalLabelPosition=top;aspect=fixed;html=1;verticalAlign=bottom;strokeColor=none;shape=mxgraph.citrix.thin_client;fillColor=#66B2FF;gradientColor=#0066CC;fontSize=14;labelPosition=center;align=center;" vertex="1" parent="1">
          <mxGeometry x="1918" y="920" width="71" height="71" as="geometry" />
        </mxCell>
        <mxCell id="ucCqyxC-0t8KOgPkOFW8-122" value="Analyste" style="verticalLabelPosition=top;aspect=fixed;html=1;verticalAlign=bottom;strokeColor=none;shape=mxgraph.citrix.thin_client;fillColor=#66B2FF;gradientColor=#0066CC;fontSize=14;labelPosition=center;align=center;" vertex="1" parent="1">
          <mxGeometry x="1919" y="1244" width="71" height="71" as="geometry" />
        </mxCell>
        <mxCell id="ucCqyxC-0t8KOgPkOFW8-123" value="" style="endArrow=none;dashed=1;html=1;dashPattern=1 3;strokeWidth=4;rounded=0;exitX=0.879;exitY=0.769;exitDx=0;exitDy=0;exitPerimeter=0;" edge="1" parent="1">
          <mxGeometry width="50" height="50" relative="1" as="geometry">
            <mxPoint x="1748" y="1130" as="sourcePoint" />
            <mxPoint x="1960" y="1130" as="targetPoint" />
            <Array as="points">
              <mxPoint x="1960" y="1130" />
            </Array>
          </mxGeometry>
        </mxCell>
        <mxCell id="ucCqyxC-0t8KOgPkOFW8-124" value="" style="endArrow=none;dashed=1;html=1;dashPattern=1 3;strokeWidth=4;rounded=0;" edge="1" parent="1">
          <mxGeometry width="50" height="50" relative="1" as="geometry">
            <mxPoint x="1958" y="1210" as="sourcePoint" />
            <mxPoint x="1958" y="1132" as="targetPoint" />
            <Array as="points" />
          </mxGeometry>
        </mxCell>
        <mxCell id="ucCqyxC-0t8KOgPkOFW8-125" value="" style="endArrow=none;dashed=1;html=1;dashPattern=1 3;strokeWidth=4;rounded=0;" edge="1" parent="1">
          <mxGeometry width="50" height="50" relative="1" as="geometry">
            <mxPoint x="1958" y="1117" as="sourcePoint" />
            <mxPoint x="1958" y="1010" as="targetPoint" />
            <Array as="points" />
          </mxGeometry>
        </mxCell>
        <mxCell id="ucCqyxC-0t8KOgPkOFW8-126" value="" style="shape=table;startSize=0;container=1;collapsible=0;childLayout=tableLayout;fillColor=#cce5ff;strokeColor=#36393d;strokeWidth=1;perimeterSpacing=0;swimlaneLine=0;rounded=0;swimlaneFillColor=none;" vertex="1" parent="1">
          <mxGeometry x="967" y="1530" width="273" height="52" as="geometry" />
        </mxCell>
        <mxCell id="ucCqyxC-0t8KOgPkOFW8-127" value="" style="shape=tableRow;horizontal=0;startSize=0;swimlaneHead=0;swimlaneBody=0;strokeColor=#36393d;top=0;left=0;bottom=0;right=0;collapsible=0;dropTarget=0;fillColor=#cce5ff;points=[[0,0.5],[1,0.5]];portConstraint=eastwest;swimlaneLine=1;swimlaneFillColor=none;" vertex="1" parent="ucCqyxC-0t8KOgPkOFW8-126">
          <mxGeometry width="273" height="52" as="geometry" />
        </mxCell>
        <mxCell id="ucCqyxC-0t8KOgPkOFW8-128" value="Ports" style="shape=partialRectangle;html=1;whiteSpace=wrap;connectable=0;strokeColor=#36393d;overflow=hidden;fillColor=#cce5ff;top=0;left=0;bottom=0;right=0;pointerEvents=1;swimlaneLine=1;swimlaneFillColor=none;" vertex="1" parent="ucCqyxC-0t8KOgPkOFW8-127">
          <mxGeometry width="68" height="52" as="geometry">
            <mxRectangle width="68" height="52" as="alternateBounds" />
          </mxGeometry>
        </mxCell>
        <mxCell id="ucCqyxC-0t8KOgPkOFW8-129" value="1514" style="shape=partialRectangle;html=1;whiteSpace=wrap;connectable=0;strokeColor=#36393d;overflow=hidden;fillColor=#cce5ff;top=0;left=0;bottom=0;right=0;pointerEvents=1;swimlaneLine=1;swimlaneFillColor=none;" vertex="1" parent="ucCqyxC-0t8KOgPkOFW8-127">
          <mxGeometry x="68" width="69" height="52" as="geometry">
            <mxRectangle width="69" height="52" as="alternateBounds" />
          </mxGeometry>
        </mxCell>
        <mxCell id="ucCqyxC-0t8KOgPkOFW8-130" value="1515" style="shape=partialRectangle;html=1;whiteSpace=wrap;connectable=0;strokeColor=#36393d;overflow=hidden;fillColor=#cce5ff;top=0;left=0;bottom=0;right=0;pointerEvents=1;swimlaneLine=1;swimlaneFillColor=none;" vertex="1" parent="ucCqyxC-0t8KOgPkOFW8-127">
          <mxGeometry x="137" width="68" height="52" as="geometry">
            <mxRectangle width="68" height="52" as="alternateBounds" />
          </mxGeometry>
        </mxCell>
        <mxCell id="ucCqyxC-0t8KOgPkOFW8-131" value="55000" style="shape=partialRectangle;html=1;whiteSpace=wrap;connectable=0;strokeColor=#36393d;overflow=hidden;fillColor=#cce5ff;top=0;left=0;bottom=0;right=0;pointerEvents=1;swimlaneLine=1;swimlaneFillColor=none;" vertex="1" parent="ucCqyxC-0t8KOgPkOFW8-127">
          <mxGeometry x="205" width="68" height="52" as="geometry">
            <mxRectangle width="68" height="52" as="alternateBounds" />
          </mxGeometry>
        </mxCell>
        <mxCell id="ucCqyxC-0t8KOgPkOFW8-132" value="&lt;font style=&quot;font-size: 18px;&quot;&gt;Wazuh (node)&lt;/font&gt;" style="text;html=1;align=center;verticalAlign=middle;resizable=0;points=[];autosize=1;strokeColor=#36393d;fillColor=#cce5ff;swimlaneFillColor=none;" vertex="1" parent="1">
          <mxGeometry x="797" y="1536" width="130" height="40" as="geometry" />
        </mxCell>
        <mxCell id="ucCqyxC-0t8KOgPkOFW8-133" value="" style="rounded=0;whiteSpace=wrap;html=1;opacity=0;" vertex="1" parent="1">
          <mxGeometry x="-8" y="-8" width="2176" height="1773" as="geometry" />
        </mxCell>
      </root>
    </mxGraphModel>
  </diagram>
</mxfile>
